# xmcd CD database file
# Copyright (C) 1993-1996 Ti Kan
#
# Track frame offsets:
# 150
# 14925
# 29570
# 42102
# 56202
# 69422
# 83615
# 95605
# 108965
# 124217
# 138610
# 151060
# 165415
# 177865
# 191320
# 193487
# 207697
# 224545
# 240412
# 245127
# 260897
# 272462
# 284462
# 292355
# 303960
# 314620
# 324680
# 339697
#
# Disc length: 4665 seconds
#
# Revision: 0
# Processed by: cddbd v1.4PL0 Copyright (c) Steve Scherf et al.
# Submitted via: inCDius 1.1b5
#
DISCID=c212371c
DTITLE=Ernest Tubb - Walking The Floor Over You - Disc 8
DYEAR=1996
DGENRE=Country
TTITLE0=The Last Goodbye
TTITLE1=Get In Or Get Out Of My Heart
TTITLE2=How Can I Be Sure
TTITLE3=Those Tears In You're Eyes (Were Not For Me)
TTITLE4=So Round, So Firm, So Fully Packed
TTITLE5=Don't Look Now (But Your Broken Heart Is Showing)
TTITLE6=A Hundred And Sixty Acres
TTITLE7=A Woman Has Wrecked Many A Good Man
TTITLE8=White Christmas
TTITLE9=It's A Lonely World
TTITLE10=Mississippi Gal
TTITLE11=The Trouble With Me Is Trouble
TTITLE12=Heart Please Be Still
TTITLE13=I Hope I'm Wrong
TTITLE14=Those Tears In Your Eyes (Were Not For Me)
TTITLE15=Those Tears In Your Eyes (Were Not For Me)
TTITLE16=Don't Talk To Me About Dames
TTITLE17=You Won't Ever Forget Me
TTITLE18=My Confession
TTITLE19=You Won't Ever Forget Me
TTITLE20=It Just Don't Matter Now
TTITLE21=You Nearly Lose Your Mind
TTITLE22=Try Me One More Time
TTITLE23=Just Crying To Myself
TTITLE24=You're Going To Be Sorry
TTITLE25=There's Gonna Be Some Changes Made Around Here
TTITLE26=You Could Have Said Goodbye
TTITLE27=Those Tears In Your Eyes (Were Not For Me)
EXTD=
EXTT0=
EXTT1=
EXTT2=
EXTT3=
EXTT4=
EXTT5=
EXTT6=
EXTT7=
EXTT8=
EXTT9=
EXTT10=
EXTT11=
EXTT12=
EXTT13=
EXTT14=
EXTT15=
EXTT16=
EXTT17=
EXTT18=
EXTT19=
EXTT20=
EXTT21=
EXTT22=
EXTT23=
EXTT24=
EXTT25=
EXTT26=
EXTT27=
PLAYORDER=
